<svg preserveAspectRatio="none" overflow="visible" style="display: block;" width="22" height="22" viewBox="0 0 22 22" fill="none" xmlns="http://www.w3.org/2000/svg">
<g id="icon-home">
<path id="Vector" d="M22 10.5596V21.12C22 21.3534 21.9034 21.5772 21.7315 21.7422C21.5596 21.9073 21.3264 22 21.0833 22H14.6667C14.4236 22 14.1904 21.9073 14.0185 21.7422C13.8466 21.5772 13.75 21.3534 13.75 21.12V15.3998C13.75 15.2831 13.7017 15.1711 13.6158 15.0886C13.5298 15.0061 13.4132 14.9597 13.2917 14.9597H8.70833C8.58678 14.9597 8.4702 15.0061 8.38424 15.0886C8.29829 15.1711 8.25 15.2831 8.25 15.3998V21.12C8.25 21.3534 8.15342 21.5772 7.98151 21.7422C7.80961 21.9073 7.57645 22 7.33333 22H0.916667C0.673552 22 0.440394 21.9073 0.268486 21.7422C0.0965773 21.5772 0 21.3534 0 21.12V10.5596C0.000225373 10.0929 0.193527 9.64534 0.537396 9.31543L9.70406 0.515103C10.0478 0.185277 10.514 0 11 0C11.486 0 11.9522 0.185277 12.2959 0.515103L21.4626 9.31543C21.8065 9.64534 21.9998 10.0929 22 10.5596Z" fill="#8A8F84"/>
</g>
</svg>
